<svg xmlns="http://www.w3.org/2000/svg" viewBox="0 0 32 32">
  <title>TinyQR</title>
  <rect width="32" height="32" fill="#ffffff"/>
  <g fill="#0f1419">
    <!-- Top-left finder -->
    <rect x="2" y="2" width="9" height="9"/>
    <rect x="4" y="4" width="5" height="5" fill="#ffffff"/>
    <rect x="5" y="5" width="3" height="3"/>
    <!-- Top-right finder -->
    <rect x="21" y="2" width="9" height="9"/>
    <rect x="23" y="4" width="5" height="5" fill="#ffffff"/>
    <rect x="24" y="5" width="3" height="3"/>
    <!-- Bottom-left finder -->
    <rect x="2" y="21" width="9" height="9"/>
    <rect x="4" y="23" width="5" height="5" fill="#ffffff"/>
    <rect x="5" y="24" width="3" height="3"/>
    <!-- Timing / data modules (QR-like grid) -->
    <rect x="13" y="2" width="2" height="2"/>
    <rect x="16" y="2" width="2" height="2"/>
    <rect x="13" y="5" width="2" height="2"/>
    <rect x="18" y="5" width="2" height="2"/>
    <rect x="13" y="13" width="2" height="2"/>
    <rect x="16" y="13" width="2" height="2"/>
    <rect x="19" y="13" width="2" height="2"/>
    <rect x="13" y="16" width="2" height="2"/>
    <rect x="17" y="16" width="2" height="2"/>
    <rect x="21" y="16" width="2" height="2"/>
    <rect x="13" y="19" width="2" height="2"/>
    <rect x="15" y="19" width="2" height="2"/>
    <rect x="19" y="19" width="2" height="2"/>
    <rect x="23" y="19" width="2" height="2"/>
    <rect x="13" y="22" width="2" height="2"/>
    <rect x="16" y="22" width="2" height="2"/>
    <rect x="20" y="22" width="2" height="2"/>
    <rect x="24" y="22" width="2" height="2"/>
    <rect x="13" y="25" width="2" height="2"/>
    <rect x="17" y="25" width="2" height="2"/>
    <rect x="21" y="25" width="2" height="2"/>
    <rect x="2" y="13" width="2" height="2"/>
    <rect x="5" y="13" width="2" height="2"/>
    <rect x="8" y="13" width="2" height="2"/>
    <rect x="2" y="16" width="2" height="2"/>
    <rect x="6" y="16" width="2" height="2"/>
    <rect x="9" y="16" width="2" height="2"/>
    <rect x="2" y="19" width="2" height="2"/>
    <rect x="5" y="19" width="2" height="2"/>
    <rect x="8" y="19" width="2" height="2"/>
    <rect x="24" y="13" width="2" height="2"/>
    <rect x="27" y="13" width="2" height="2"/>
    <rect x="24" y="16" width="2" height="2"/>
    <rect x="28" y="16" width="2" height="2"/>
    <rect x="24" y="24" width="2" height="2"/>
    <rect x="27" y="27" width="2" height="2"/>
  </g>
</svg>
